<svg width="1512" height="468" viewBox="0 0 1512 468" fill="none" xmlns="http://www.w3.org/2000/svg">
<g filter="url(#filter0_d_217_269)">
<path d="M-23 5C2.15065 102.295 50 206.5 112.5 270C175 333.5 243.251 360.12 339.5 375C430.119 385.068 501.765 362.725 669 270C802.591 210.83 876.45 212.366 1007 255C1237 351 1446.17 156 1522 46.5" stroke="white" stroke-opacity="0.2" stroke-width="2" shape-rendering="crispEdges"/>
</g>
<g filter="url(#filter1_d_217_269)">
<path d="M1534.5 297.647C1444.36 1.29883 1374.08 -19.2508 1218.5 167.647C963.604 448.639 761.633 549.435 620.5 353C542 222.5 426.5 153 283.5 116.147C129.249 88.3834 56.805 135.482 -41 359.647" stroke="white" stroke-opacity="0.2" stroke-width="2" shape-rendering="crispEdges"/>
</g>
<g filter="url(#filter2_f_217_269)">
<path d="M318.332 86.4366C325.724 81.9369 335.303 86.5032 336.463 95.079L345.762 163.854C347.04 173.304 337.315 180.397 328.707 176.294L260.127 143.605C251.518 139.502 250.905 127.481 259.051 122.522L318.332 86.4366Z" fill="#7270E3"/>
</g>
<g filter="url(#filter3_f_217_269)">
<rect x="1286.5" y="191.21" width="73.4185" height="73.4185" rx="12" transform="rotate(-1.72511 1286.5 191.21)" fill="#53B03A"/>
</g>
<g filter="url(#filter4_f_217_269)">
<circle cx="898.5" cy="426" r="40" fill="#FCA779"/>
</g>
<defs>
<filter id="filter0_d_217_269" x="-27.9683" y="0.749756" width="1554.79" height="381.469" filterUnits="userSpaceOnUse" color-interpolation-filters="sRGB">
<feFlood flood-opacity="0" result="BackgroundImageFix"/>
<feColorMatrix in="SourceAlpha" type="matrix" values="0 0 0 0 0 0 0 0 0 0 0 0 0 0 0 0 0 0 127 0" result="hardAlpha"/>
<feOffset/>
<feGaussianBlur stdDeviation="2"/>
<feComposite in2="hardAlpha" operator="out"/>
<feColorMatrix type="matrix" values="0 0 0 0 1 0 0 0 0 1 0 0 0 0 1 0 0 0 0.25 0"/>
<feBlend mode="normal" in2="BackgroundImageFix" result="effect1_dropShadow_217_269"/>
<feBlend mode="normal" in="SourceGraphic" in2="effect1_dropShadow_217_269" result="shape"/>
</filter>
<filter id="filter1_d_217_269" x="-45.9165" y="41.999" width="1585.37" height="418.065" filterUnits="userSpaceOnUse" color-interpolation-filters="sRGB">
<feFlood flood-opacity="0" result="BackgroundImageFix"/>
<feColorMatrix in="SourceAlpha" type="matrix" values="0 0 0 0 0 0 0 0 0 0 0 0 0 0 0 0 0 0 127 0" result="hardAlpha"/>
<feOffset/>
<feGaussianBlur stdDeviation="2"/>
<feComposite in2="hardAlpha" operator="out"/>
<feColorMatrix type="matrix" values="0 0 0 0 1 0 0 0 0 1 0 0 0 0 1 0 0 0 0.25 0"/>
<feBlend mode="normal" in2="BackgroundImageFix" result="effect1_dropShadow_217_269"/>
<feBlend mode="normal" in="SourceGraphic" in2="effect1_dropShadow_217_269" result="shape"/>
</filter>
<filter id="filter2_f_217_269" x="251.29" y="82.675" width="96.5859" height="96.8081" filterUnits="userSpaceOnUse" color-interpolation-filters="sRGB">
<feFlood flood-opacity="0" result="BackgroundImageFix"/>
<feBlend mode="normal" in="SourceGraphic" in2="BackgroundImageFix" result="shape"/>
<feGaussianBlur stdDeviation="1" result="effect1_foregroundBlur_217_269"/>
</filter>
<filter id="filter3_f_217_269" x="1284.86" y="187.356" width="78.884" height="78.884" filterUnits="userSpaceOnUse" color-interpolation-filters="sRGB">
<feFlood flood-opacity="0" result="BackgroundImageFix"/>
<feBlend mode="normal" in="SourceGraphic" in2="BackgroundImageFix" result="shape"/>
<feGaussianBlur stdDeviation="1" result="effect1_foregroundBlur_217_269"/>
</filter>
<filter id="filter4_f_217_269" x="856.5" y="384" width="84" height="84" filterUnits="userSpaceOnUse" color-interpolation-filters="sRGB">
<feFlood flood-opacity="0" result="BackgroundImageFix"/>
<feBlend mode="normal" in="SourceGraphic" in2="BackgroundImageFix" result="shape"/>
<feGaussianBlur stdDeviation="1" result="effect1_foregroundBlur_217_269"/>
</filter>
</defs>
</svg>
